<svg xmlns="http://www.w3.org/2000/svg" id="svg-basket" viewBox="0 0 25 31">
        <path d="M23.7988,6.8999h-4.5996V6.7998C19.1992,3,16.0996,0,12.3994,0 C8.5996,0,5.5996,3.1001,5.5996,6.7998v0.1001H1c-0.5996,0-1,0.3999-1,1v21.6997c0,0.5996,0.4004,0.999,1,0.999h22.8994 c0.5996,0,1-0.3994,1-0.999V7.8999C24.7988,7.3999,24.3994,6.8999,23.7988,6.8999z M7.5996,6.7998C7.5996,4.1001,9.7998,2,12.3994,2 c2.7002,0,4.7998,2.2002,4.7998,4.7998v0.1001H7.5996V6.7998L7.5996,6.7998z M22.7988,28.5996H1.9004V8.8999h20.8984V28.5996z"></path>
    </svg>
