<svg xmlns="http://www.w3.org/2000/svg" width="85" height="85" id="svg-search" viewBox="0 0 85 85">
    <path fill="#000000" d="M33.3,66.5c-8.9,0-17.2-3.5-23.5-9.7c-13-13-13-34.1,0-47.1C16,3.5,24.4,0,33.3,0c8.9,0,17.2,3.5,23.5,9.7 c13,13,13,34.1,0,47.1C50.5,63.1,42.2,66.5,33.3,66.5z M33.3,5.6c-7.4,0-14.3,2.9-19.6,8.1C2.9,24.5,2.9,42,13.7,52.8 c5.2,5.2,12.2,8.1,19.6,8.1c7.4,0,14.3-2.9,19.6-8.1c10.8-10.8,10.8-28.3,0-39.1C47.6,8.5,40.7,5.6,33.3,5.6z"></path>
    <path fill="#000000" d="M82.2,85c-0.7,0-1.4-0.3-2-0.8L52.8,56.8c-1.1-1.1-1.1-2.9,0-4s2.9-1.1,4,0l27.4,27.4c1.1,1.1,1.1,2.9,0,4 C83.7,84.8,83,85,82.2,85z"></path>
</svg>
